#!OML:ASF Y:\EmotionMaleHayes\Project 1\Capture day 1\Session 1\Male1.ASF
:FULLY-SPECIFIED
:DEGREES
135
root -12.2594 18.0173 2.94906 193.003 71.1436 185.576
lowerback 15.6981 4.84689 8.11788
upperback 3.92947 7.96972 0.949735
thorax -3.57974 4.00972 -4.94351
lowerneck -20.3616 -7.44231 -0.607167
upperneck 14.648 -10.2793 1.80712
head 7.97823 -4.71496 -0.599144
rclavicle -1.11319e-014 -4.13472e-014
rhumerus 10.5621 50.2165 -79.7846
rradius 95.0243
rwrist -16.8718
rhand -12.9395 -24.0123
rfingers 7.12502
rthumb 13.1515 -53.5775
lclavicle -1.11319e-014 -4.13472e-014
lhumerus -74.685 -17.7241 82.8916
lradius 53.3504
lwrist 19.247
lhand -17.8444 -21.5847
lfingers 7.12502
lthumb 8.42052 8.22747
rfemur 9.44312 -8.78664 25.414
rtibia 35.2642
rfoot -2.08996 -8.91769
rtoes 20.1084
lfemur -29.731 25.085 -23.8813
ltibia 25.1664
lfoot -1.97977 3.09328
ltoes -13.5717
136
root -11.9964 17.9387 2.89187 192.046 70.7372 184.978
lowerback 15.5546 4.85659 7.72855
upperback 3.94858 7.8992 0.824077
thorax -3.52702 3.97995 -4.8358
lowerneck -20.2753 -7.48202 -0.525654
upperneck 14.704 -10.3486 1.75506
head 7.97569 -4.74832 -0.635313
rclavicle -3.65764e-014 -4.53229e-014
rhumerus 10.753 50.2495 -79.8195
rradius 96.3084
rwrist -17.1214
rhand -13.0998 -24.3011
rfingers 7.12502
rthumb 12.997 -53.8762
lclavicle -3.65764e-014 -4.53229e-014
lhumerus -74.6354 -16.2639 82.7947
lradius 52.2672
lwrist 19.3663
lhand -18.1671 -22.0251
lfingers 7.12502
lthumb 8.10909 7.79926
rfemur 9.7942 -9.07157 25.0095
rtibia 36.6611
rfoot -2.29039 -8.72994
rtoes 21.1577
lfemur -28.7569 24.9153 -24.5652
ltibia 23.7219
lfoot -1.73339 4.1556
ltoes -13.3439
137
root -11.7321 17.8434 2.83494 191.088 70.2463 184.416
lowerback 15.4439 4.84922 7.41241
upperback 3.9637 7.82128 0.668314
thorax -3.48209 3.94593 -4.80192
lowerneck -20.316 -7.654 -0.538295
upperneck 14.9394 -10.6006 1.81947
head 8.06852 -4.85385 -0.65256
rclavicle -2.06736e-014 -2.38542e-014
rhumerus 10.7755 50.0885 -80.0343
rradius 97.56
rwrist -17.2821
rhand -13.1769 -24.2913
rfingers 7.12502
rthumb 12.9227 -53.8711
lclavicle -2.06736e-014 -2.38542e-014
lhumerus -74.4996 -15.0115 82.7444
lradius 51.038
lwrist 19.8265
lhand -18.7029 -22.4963
lfingers 7.12502
lthumb 7.59194 7.34745
rfemur 10.2665 -9.39039 24.6087
rtibia 37.8876
rfoot -3.00752 -8.71682
rtoes 19.0325
lfemur -27.7551 24.7679 -25.1715
ltibia 22.5043
lfoot -1.02686 4.89373
ltoes -13.6554
138
root -11.4745 17.7381 2.78139 192.545 69.6921 186.461
lowerback 15.4236 4.78107 7.94962
upperback 3.97308 7.82603 0.772467
thorax -3.4026 3.95382 -4.98197
lowerneck -20.4333 -7.8045 -0.676744
upperneck 15.2199 -10.8164 2.01838
head 8.20532 -4.93179 -0.607262
rclavicle 2.94201e-014 -2.06736e-014
rhumerus 10.7992 49.8655 -80.0898
rradius 98.7606
rwrist -17.5334
rhand -13.1493 -23.7448
rfingers 7.12502
rthumb 12.9493 -53.323
lclavicle 2.94201e-014 -2.06736e-014
lhumerus -74.1016 -13.7126 82.6605
lradius 49.5375
lwrist 20.2114
lhand -19.4217 -22.5862
lfingers 7.12502
lthumb 6.89808 7.28138
rfemur 10.6133 -9.63403 25.3073
rtibia 39.2487
rfoot -3.67349 -8.80293
rtoes 18.0869
lfemur -26.761 24.5088 -24.4827
ltibia 21.5774
lfoot -0.224654 5.41593
ltoes -12.9048
139
root -11.2269 17.6243 2.72703 195.047 69.3727 189.628
lowerback 15.5219 4.74473 8.72982
upperback 3.98151 7.93687 1.06456
thorax -3.36708 4.01237 -5.12532
lowerneck -20.2911 -7.8568 -0.956296
upperneck 15.1682 -10.8434 2.20863
head 8.19181 -4.94375 -0.500028
rclavicle 3.06128e-014 -3.10104e-014
rhumerus 10.71 49.7787 -80.1126
rradius 99.9637
rwrist -17.5405
rhand -12.8234 -24.3998
rfingers 7.12502
rthumb 13.2634 -53.9578
lclavicle 3.06128e-014 -3.10104e-014
lhumerus -73.5638 -12.05 82.5764
lradius 47.8083
lwrist 20.1336
lhand -20.1842 -22.4098
lfingers 7.12502
lthumb 6.16198 7.48059
rfemur 10.6505 -9.51597 26.4855
rtibia 40.9802
rfoot -4.58751 -9.11992
rtoes 18.9573
lfemur -25.8425 24.4194 -23.234
ltibia 20.8847
lfoot 0.763157 5.56158
ltoes -7.86369
140
root -10.9952 17.5069 2.67224 197.413 69.1367 192.257
lowerback 15.4959 4.78932 9.35301
upperback 3.81827 8.11173 1.28428
thorax -3.44771 4.08532 -5.26474
lowerneck -19.9625 -7.91956 -1.2525
upperneck 14.9229 -10.8675 2.36831
head 8.08052 -4.96736 -0.387601
rclavicle 5.56597e-014 1.11319e-014
rhumerus 10.4897 49.6778 -80.2254
rradius 101.108
rwrist -17.3597
rhand -12.9374 -24.6843
rfingers 7.12502
rthumb 13.1536 -54.2494
lclavicle 5.56597e-014 1.11319e-014
lhumerus -73.03 -10.4472 82.3782
lradius 45.9973
lwrist 20.4179
lhand -20.1846 -22.7885
lfingers 7.12502
lthumb 6.16158 7.10192
rfemur 10.0135 -9.32429 27.4557
rtibia 43.0478
rfoot -5.55576 -9.46978
rtoes 19.8388
lfemur -25.6178 24.5058 -22.5739
ltibia 20.6741
lfoot 1.58483 5.00494
ltoes 0.0885542
141
root -10.7435 17.3843 2.6318 198.846 68.2957 194.072
lowerback 15.3968 4.66334 9.85322
upperback 3.7228 8.03388 1.45615
thorax -3.46455 4.04197 -5.33931
lowerneck -19.866 -7.94248 -1.3139
upperneck 14.8481 -10.9035 2.49175
head 8.05097 -4.97802 -0.337341
rclavicle 9.46215e-014 -3.97569e-015
rhumerus 10.4541 49.4844 -80.2924
rradius 102.176
rwrist -17.3705
rhand -12.9467 -24.7111
rfingers 7.12502
rthumb 13.1446 -54.2768
lclavicle 9.46215e-014 -3.97569e-015
lhumerus -72.4382 -9.22556 82.1527
lradius 44.1619
lwrist 20.6757
lhand -20.4441 -22.9898
lfingers 7.12502
lthumb 5.91102 6.90778
rfemur 9.86937 -9.71545 28.3356
rtibia 44.6218
rfoot -6.63971 -10.2927
rtoes 20.1343
lfemur -25.2518 24.4592 -21.9955
ltibia 20.9598
lfoot 1.52531 3.85102
ltoes 15.1072
142
root -10.4898 17.2455 2.59026 198.591 67.6384 194.337
lowerback 15.5236 4.55088 9.90453
upperback 3.68007 7.90786 1.36334
thorax -3.57741 3.97208 -5.46553
lowerneck -19.7011 -7.92042 -1.08375
upperneck 14.7433 -10.9468 2.55635
head 7.9801 -4.98326 -0.347243
rclavicle -1.25234e-014 2.14687e-014
rhumerus 10.1204 49.1067 -80.8103
rradius 103.267
rwrist -17.2828
rhand -12.7127 -24.7668
rfingers 7.12502
rthumb 13.3701 -54.3178
lclavicle -1.25234e-014 2.14687e-014
lhumerus -71.7787 -8.25179 81.821
lradius 42.2482
lwrist 20.9513
lhand -20.8311 -22.814
lfingers 7.12502
lthumb 5.53741 7.0936
rfemur 10.0909 -10.1246 28.4423
rtibia 46.0291
rfoot -8.09917 -11.4129
rtoes 20.4466
lfemur -24.4681 23.6416 -21.7929
ltibia 22.4015
lfoot -3.35219 6.65793
ltoes 13.5174
143
root -10.2457 17.0921 2.5436 196.894 67.1898 193.054
lowerback 15.8108 4.50262 9.24724
upperback 3.5718 7.76278 1.21375
thorax -3.93828 3.87639 -5.28868
lowerneck -19.3423 -7.94479 -1.01206
upperneck 14.5954 -10.9889 2.52965
head 7.86497 -5.01179 -0.353827
rclavicle -3.37934e-015 -1.82882e-014
rhumerus 9.20641 48.6737 -81.5972
rradius 104.376
rwrist -17.0457
rhand -12.6807 -24.7855
rfingers 7.12502
rthumb 13.401 -54.3344
lclavicle -3.37934e-015 -1.82882e-014
lhumerus -71.2524 -7.13186 81.586
lradius 40.3222
lwrist 21.1394
lhand -20.9827 -22.3656
lfingers 7.12502
lthumb 5.3911 7.54584
rfemur 10.2525 -10.5569 27.7145
rtibia 47.5707
rfoot -9.57413 -12.5329
rtoes 21.3003
lfemur -23.7316 21.6782 -22.18
ltibia 23.8219
lfoot -5.71761 9.54545
ltoes 10.8744
